<svg xmlns="http://www.w3.org/2000/svg" viewBox="0 0 512 512" width="512" height="512">
  <rect width="512" height="512" fill="#000000"/>
  <path transform="translate(-35.226,-24.069) scale(1.15)" d="m 180.7384,133.11795 q 15.79487,0 27.13846,4.30769 11.48718,4.1641 20.9641,11.05641 l -11.63077,16.51282 q -8.47179,-5.88718 -17.23076,-9.04615 -8.61539,-3.30257 -20.67693,-3.30257 -12.20513,0 -19.81538,5.6 -7.61026,5.6 -7.61026,14.78975 0,6.46154 2.72821,10.91282 2.87179,4.45128 10.48205,8.47179 7.75384,3.87693 22.25641,8.75898 23.40513,7.75384 33.6,17.37436 10.33846,9.62051 10.33846,26.5641 0,11.63077 -6.74872,20.9641 -6.74872,9.18974 -16.22564,14.93333 7.75385,5.88718 12.34872,13.49744 4.73846,7.61026 4.73846,17.80513 0,12.92308 -7.17949,22.25641 -7.03589,9.47692 -19.5282,14.35897 -12.34872,5.02564 -28.57436,5.02564 -15.79487,0 -28,-4.45128 Q 130.05122,345.2 120.71789,338.1641 l 11.77436,-16.22564 q 8.47179,6.03077 17.51794,9.18975 9.18975,3.15897 21.25129,3.15897 12.20513,0 20.53333,-5.31282 8.32821,-5.45641 8.32821,-14.93333 0,-6.60513 -2.8718,-10.91282 -2.87179,-4.45129 -10.48205,-8.32821 -7.61026,-3.87692 -22.11282,-8.61538 -23.40513,-7.89744 -33.88718,-17.51795 -10.48205,-9.62052 -10.48205,-26.7077 0,-11.63076 6.89231,-20.82051 6.8923,-9.18974 16.36923,-15.07692 -8.04103,-5.88718 -12.6359,-13.49744 -4.45128,-7.75384 -4.45128,-17.51795 0,-13.06666 7.32307,-22.4 7.46667,-9.47692 19.81539,-14.50256 12.34872,-5.02564 27.13846,-5.02564 z m -22.4,81.27179 q -6.60513,5.45641 -10.19487,12.06154 -3.58975,6.46154 -3.58975,12.49231 0,8.3282 3.87693,13.21026 4.02051,4.73846 14.64615,9.18974 10.76923,4.30769 30.58462,11.63077 6.60513,-5.45641 10.19487,-11.91795 3.58974,-6.60513 3.58974,-12.92308 0,-7.89743 -4.02051,-12.63589 -3.87692,-4.73847 -14.50256,-9.18975 -10.62565,-4.59487 -30.58462,-11.91795 z" fill="#f0ece4"/>
  <path transform="translate(-49.078,-14.409) scale(1.15)" d="m 381.51789,203.04615 -8.4718,63.61026 h 23.26154 v 18.66667 H 370.31789 L 364.28712,334 h -20.67693 l 6.46154,-48.67692 H 308.28712 L 301.96917,334 h -20.67692 l 6.46153,-48.67692 h -22.68717 v -18.66667 h 25.1282 l 8.75897,-63.61026 H 275.69225 V 184.2359 h 25.70256 l 6.31795,-47.95898 h 20.67692 l -6.89231,47.95898 h 42.21539 l 6.31795,-47.95898 h 20.67692 l -6.74872,47.95898 h 22.97436 v 18.81025 z m -70.78975,63.61026 h 41.78462 l 8.75897,-63.61026 h -42.07179 z" fill="#f0ece4"/>
</svg>
